<svg xmlns="http://www.w3.org/2000/svg" xmlns:xlink="http://www.w3.org/1999/xlink" width="500" zoomAndPan="magnify" viewBox="0 0 375 374.999991" height="500" preserveAspectRatio="xMidYMid meet" version="1.0"><defs><g/><clipPath id="efeacb716d"><path d="M 131 159 L 243 159 L 243 270.949219 L 131 270.949219 Z M 131 159 " clip-rule="nonzero"/></clipPath><clipPath id="bd36f61dd2"><path d="M 0.476562 143 L 106 143 L 106 165 L 0.476562 165 Z M 0.476562 143 " clip-rule="nonzero"/></clipPath><clipPath id="92f7200f6b"><path d="M 269 144 L 374.726562 144 L 374.726562 166 L 269 166 Z M 269 144 " clip-rule="nonzero"/></clipPath><clipPath id="b67885d028"><path d="M 169.300781 54.171875 L 206 54.171875 L 206 88.671875 L 169.300781 88.671875 Z M 169.300781 54.171875 " clip-rule="nonzero"/></clipPath><clipPath id="0e95e59749"><path d="M 134.703125 66.789062 L 162.453125 66.789062 L 162.453125 93.039062 L 134.703125 93.039062 Z M 134.703125 66.789062 " clip-rule="nonzero"/></clipPath><clipPath id="e685d2dd2c"><path d="M 212.644531 66.789062 L 240.394531 66.789062 L 240.394531 93.039062 L 212.644531 93.039062 Z M 212.644531 66.789062 " clip-rule="nonzero"/></clipPath></defs><g clip-path="url(#efeacb716d)"><path fill="#c1944c" d="M 187.113281 270.957031 C 156.449219 270.957031 131.589844 246.097656 131.589844 215.429688 C 131.589844 184.769531 156.449219 159.90625 187.113281 159.90625 C 217.777344 159.90625 242.640625 184.769531 242.640625 215.429688 C 242.640625 246.097656 217.777344 270.957031 187.113281 270.957031 " fill-opacity="1" fill-rule="evenodd"/></g><path fill="#df5c26" d="M 187.167969 267.375 C 158.429688 267.375 135.125 244.070312 135.125 215.332031 C 135.125 182.332031 181.703125 204.757812 196.519531 215.679688 C 179.917969 199.789062 159.59375 192.625 139.585938 194.222656 C 152.992188 164.070312 196.953125 188.214844 213.1875 204.539062 C 197.988281 184.71875 176.867188 174.414062 154.949219 174.460938 C 178.136719 156.15625 206.738281 171.453125 225.773438 189.234375 C 216.316406 176.902344 204.566406 168.253906 191.757812 163.492188 C 209.238281 165.019531 224.242188 175.191406 232.472656 189.707031 C 214.046875 218.460938 180.796875 234 144.988281 224.210938 C 180.042969 238.839844 216.015625 227.5625 235.8125 196.804688 C 234.167969 244.863281 174.179688 246.933594 152.136719 240.679688 C 183.4375 253.746094 220.417969 246.859375 239.105469 218.660156 C 236.699219 256.636719 191.601562 264.457031 160.644531 255.988281 C 179.929688 264.042969 197.878906 265.359375 213.527344 260.207031 C 205.796875 264.761719 196.789062 267.375 187.167969 267.375 " fill-opacity="1" fill-rule="evenodd"/><path fill="#ff6423" d="M 166.304688 263.019531 C 148.882812 255.382812 136.441406 238.484375 135.222656 218.550781 C 137.53125 189.492188 181.222656 210.328125 196.085938 221.058594 C 180.792969 227.609375 163.226562 229.195312 144.988281 224.210938 C 160.203125 230.558594 175.589844 232.023438 189.75 229.140625 C 176.023438 233.617188 160.753906 234.21875 144.988281 229.90625 C 179.667969 244.378906 215.242188 233.492188 235.167969 203.480469 C 228.429688 245.039062 173.109375 246.632812 152.136719 240.679688 C 168.066406 247.332031 185.464844 248.808594 201.175781 244.941406 C 183.324219 250.527344 163.066406 249.476562 152.136719 246.378906 C 182.863281 259.203125 219.0625 252.800781 238.058594 225.878906 C 230.722656 257.609375 189.527344 263.886719 160.644531 255.988281 C 175.894531 262.355469 190.3125 264.511719 203.414062 262.589844 C 191.457031 265.472656 178.164062 265.386719 166.304688 263.019531 Z M 143.050781 199.734375 C 157.003906 193.125 185.515625 207.570312 196.519531 215.679688 C 180.890625 200.71875 161.953125 193.496094 143.09375 194.035156 C 159.429688 173.347656 198.167969 195.136719 213.1875 210.238281 C 198.566406 191.164062 178.457031 180.90625 157.429688 180.199219 C 176.058594 177.359375 201.636719 192.925781 213.1875 204.539062 C 199.976562 187.3125 182.292969 177.273438 163.5 174.972656 C 184.855469 165.5625 209.023438 179.285156 225.773438 194.929688 C 216.316406 182.59375 204.566406 173.949219 191.757812 169.183594 C 193.214844 169.3125 194.65625 169.503906 196.082031 169.75 C 206.988281 173.941406 217.324219 181.339844 225.773438 189.234375 C 221.835938 184.101562 217.5 179.601562 212.855469 175.761719 C 220.023438 179.835938 226.128906 185.570312 230.652344 192.433594 C 221.785156 205.203125 209.894531 215.121094 196.15625 221.027344 C 180.582031 206.292969 161.78125 199.1875 143.050781 199.734375 " fill-opacity="1" fill-rule="evenodd"/><path fill="#c1944c" d="M 116.066406 164.273438 C 119.90625 175.371094 125.941406 185.164062 133.496094 191.878906 C 134.742188 189.585938 135.863281 187.253906 137.667969 185.28125 C 130.625 176.292969 124.234375 167.042969 122.421875 155.964844 C 86.152344 138.273438 45.722656 134.429688 3.195312 137.59375 C 44.867188 139.863281 85.878906 143.21875 116.066406 164.273438 " fill-opacity="1" fill-rule="evenodd"/><g clip-path="url(#bd36f61dd2)"><path fill="#c1944c" d="M 0.808594 143.800781 C 37.335938 142.503906 72.066406 151.3125 105.984375 164.714844 C 46.570312 146.445312 22.777344 176.332031 0.808594 143.800781 " fill-opacity="1" fill-rule="evenodd"/></g><path fill="#ff6423" d="M 9.59375 176.597656 C 41.105469 166.15625 73.632812 164.980469 106.617188 168.011719 C 50.160156 167.238281 37.042969 199.355469 9.59375 176.597656 " fill-opacity="1" fill-rule="evenodd"/><path fill="#c1944c" d="M 27.378906 194.992188 C 52.074219 181.410156 79.046875 175.40625 107.054688 172.851562 C 59.800781 180.917969 53.804688 209.753906 27.378906 194.992188 " fill-opacity="1" fill-rule="evenodd"/><path fill="#ff6423" d="M 60.144531 206.589844 C 74.089844 192.121094 91.183594 182.335938 109.714844 174.679688 C 79.246094 190.15625 81.257812 211.058594 60.144531 206.589844 " fill-opacity="1" fill-rule="evenodd"/><path fill="#c1944c" d="M 82.714844 213.480469 C 89.5 199.089844 99.835938 187.414062 111.785156 176.964844 C 92.867188 196.304688 99.683594 211.46875 82.714844 213.480469 " fill-opacity="1" fill-rule="evenodd"/><path fill="#ff6423" d="M 102.140625 216.066406 C 103.332031 203.617188 107.871094 192.234375 113.929688 181.328125 C 105.082031 200.664062 114.15625 210.066406 102.140625 216.066406 " fill-opacity="1" fill-rule="evenodd"/><path fill="#c1944c" d="M 116.703125 216.53125 C 114.234375 205.675781 114.894531 194.785156 116.976562 183.871094 C 114.886719 202.691406 125.183594 208.105469 116.703125 216.53125 " fill-opacity="1" fill-rule="evenodd"/><path fill="#ff6423" d="M 127.980469 206.757812 C 123.492188 199.65625 121.21875 191.742188 119.957031 183.457031 C 123.207031 197.367188 131.890625 198.628906 127.980469 206.757812 " fill-opacity="1" fill-rule="evenodd"/><path fill="#c1944c" d="M 258.925781 164.863281 C 255.089844 175.957031 249.054688 185.753906 241.496094 192.46875 C 240.253906 190.171875 239.132812 187.839844 237.324219 185.867188 C 244.367188 176.878906 250.757812 167.628906 252.570312 156.550781 C 288.839844 138.859375 329.269531 135.015625 371.792969 138.179688 C 330.128906 140.449219 289.113281 143.804688 258.925781 164.863281 " fill-opacity="1" fill-rule="evenodd"/><g clip-path="url(#92f7200f6b)"><path fill="#c1944c" d="M 374.183594 144.382812 C 337.660156 143.089844 302.921875 151.898438 269.007812 165.300781 C 328.425781 147.03125 352.214844 176.914062 374.183594 144.382812 " fill-opacity="1" fill-rule="evenodd"/></g><path fill="#ff6423" d="M 365.398438 177.183594 C 333.886719 166.742188 301.363281 165.5625 268.375 168.601562 C 324.832031 167.824219 337.949219 199.941406 365.398438 177.183594 " fill-opacity="1" fill-rule="evenodd"/><path fill="#c1944c" d="M 347.613281 195.578125 C 322.917969 181.996094 295.945312 175.992188 267.9375 173.4375 C 315.191406 181.503906 321.1875 210.339844 347.613281 195.578125 " fill-opacity="1" fill-rule="evenodd"/><path fill="#ff6423" d="M 314.847656 207.175781 C 300.902344 192.710938 283.808594 182.921875 265.28125 175.261719 C 295.75 190.738281 293.734375 211.644531 314.847656 207.175781 " fill-opacity="1" fill-rule="evenodd"/><path fill="#c1944c" d="M 292.277344 214.066406 C 285.492188 199.675781 275.160156 187.996094 263.207031 177.550781 C 282.125 196.890625 275.308594 212.054688 292.277344 214.066406 " fill-opacity="1" fill-rule="evenodd"/><path fill="#ff6423" d="M 272.851562 216.648438 C 271.660156 204.203125 267.121094 192.820312 261.0625 181.914062 C 269.910156 201.25 260.835938 210.652344 272.851562 216.648438 " fill-opacity="1" fill-rule="evenodd"/><path fill="#c1944c" d="M 258.292969 217.117188 C 260.757812 206.261719 260.097656 195.371094 258.019531 184.460938 C 260.105469 203.277344 249.808594 208.695312 258.292969 217.117188 " fill-opacity="1" fill-rule="evenodd"/><path fill="#ff6423" d="M 247.015625 207.34375 C 251.5 200.246094 253.769531 192.324219 255.035156 184.042969 C 251.789062 197.953125 243.101562 199.21875 247.015625 207.34375 " fill-opacity="1" fill-rule="evenodd"/><g clip-path="url(#b67885d028)"><path fill="#ff6423" d="M 187.546875 54.289062 L 193.15625 65.65625 L 205.699219 67.480469 L 196.617188 76.335938 L 198.769531 88.828125 L 187.546875 82.929688 L 176.316406 88.828125 L 178.460938 76.335938 L 169.386719 67.480469 L 181.933594 65.65625 Z M 187.546875 54.289062 " fill-opacity="1" fill-rule="nonzero"/><path fill="#ff6423" d="M 187.460938 54.179688 L 193.074219 65.546875 L 205.617188 67.371094 L 196.539062 76.226562 L 198.683594 88.71875 L 187.460938 82.820312 L 176.238281 88.71875 L 178.378906 76.226562 L 169.300781 67.371094 L 181.84375 65.546875 Z M 187.460938 54.179688 " fill-opacity="1" fill-rule="nonzero"/><path fill="#ff6423" d="M 187.460938 54.179688 L 193.074219 65.546875 L 205.617188 67.371094 L 196.539062 76.226562 L 198.683594 88.71875 L 187.460938 82.820312 L 176.238281 88.71875 L 178.378906 76.226562 L 169.300781 67.371094 L 181.84375 65.546875 Z M 187.460938 54.179688 " fill-opacity="1" fill-rule="nonzero"/><path fill="#ff6423" d="M 187.460938 54.179688 L 193.074219 65.546875 L 205.617188 67.371094 L 196.539062 76.226562 L 198.683594 88.71875 L 187.460938 82.820312 L 176.238281 88.71875 L 178.378906 76.226562 L 169.300781 67.371094 L 181.84375 65.546875 Z M 187.460938 54.179688 " fill-opacity="1" fill-rule="nonzero"/></g><g clip-path="url(#0e95e59749)"><path fill="#ff6423" d="M 148.558594 66.882812 L 152.816406 75.515625 L 162.347656 76.902344 L 155.449219 83.625 L 157.082031 93.113281 L 148.558594 88.632812 L 140.03125 93.113281 L 141.65625 83.625 L 134.765625 76.902344 L 144.292969 75.515625 Z M 148.558594 66.882812 " fill-opacity="1" fill-rule="nonzero"/><path fill="#ff6423" d="M 148.492188 66.800781 L 152.757812 75.433594 L 162.285156 76.816406 L 155.390625 83.542969 L 157.015625 93.03125 L 148.492188 88.550781 L 139.96875 93.03125 L 141.597656 83.542969 L 134.703125 76.816406 L 144.230469 75.433594 Z M 148.492188 66.800781 " fill-opacity="1" fill-rule="nonzero"/><path fill="#ff6423" d="M 148.492188 66.800781 L 152.757812 75.433594 L 162.285156 76.816406 L 155.390625 83.542969 L 157.015625 93.03125 L 148.492188 88.550781 L 139.96875 93.03125 L 141.597656 83.542969 L 134.703125 76.816406 L 144.230469 75.433594 Z M 148.492188 66.800781 " fill-opacity="1" fill-rule="nonzero"/><path fill="#ff6423" d="M 148.492188 66.800781 L 152.757812 75.433594 L 162.285156 76.816406 L 155.390625 83.542969 L 157.015625 93.03125 L 148.492188 88.550781 L 139.96875 93.03125 L 141.597656 83.542969 L 134.703125 76.816406 L 144.230469 75.433594 Z M 148.492188 66.800781 " fill-opacity="1" fill-rule="nonzero"/></g><g clip-path="url(#e685d2dd2c)"><path fill="#ff6423" d="M 226.5 66.882812 L 230.761719 75.515625 L 240.289062 76.902344 L 233.390625 83.625 L 235.023438 93.113281 L 226.5 88.632812 L 217.972656 93.113281 L 219.597656 83.625 L 212.710938 76.902344 L 222.238281 75.515625 Z M 226.5 66.882812 " fill-opacity="1" fill-rule="nonzero"/><path fill="#ff6423" d="M 226.433594 66.800781 L 230.699219 75.433594 L 240.226562 76.816406 L 233.332031 83.542969 L 234.957031 93.03125 L 226.433594 88.550781 L 217.910156 93.03125 L 219.539062 83.542969 L 212.644531 76.816406 L 222.171875 75.433594 Z M 226.433594 66.800781 " fill-opacity="1" fill-rule="nonzero"/><path fill="#ff6423" d="M 226.433594 66.800781 L 230.699219 75.433594 L 240.226562 76.816406 L 233.332031 83.542969 L 234.957031 93.03125 L 226.433594 88.550781 L 217.910156 93.03125 L 219.539062 83.542969 L 212.644531 76.816406 L 222.171875 75.433594 Z M 226.433594 66.800781 " fill-opacity="1" fill-rule="nonzero"/><path fill="#ff6423" d="M 226.433594 66.800781 L 230.699219 75.433594 L 240.226562 76.816406 L 233.332031 83.542969 L 234.957031 93.03125 L 226.433594 88.550781 L 217.910156 93.03125 L 219.539062 83.542969 L 212.644531 76.816406 L 222.171875 75.433594 Z M 226.433594 66.800781 " fill-opacity="1" fill-rule="nonzero"/></g><g fill="#c1944c" fill-opacity="1"><g transform="translate(101.243234, 245.20536)"><g><path d="M 21.578125 14.53125 L 25.578125 13.0625 L 22.6875 5.1875 L 18.6875 6.65625 L 18.625 8.078125 L 9.8125 8.703125 L 16.890625 3.375 L 17.875 4.453125 L 21.875 2.984375 L 18.46875 -6.265625 L 14.46875 -4.796875 L 14.59375 -2.875 L 2.34375 6.375 L 5 13.59375 L 20.40625 12.921875 Z M 21.578125 14.53125 "/></g></g></g><g fill="#c1944c" fill-opacity="1"><g transform="translate(111.029775, 269.395287)"><g><path d="M 13.21875 12.171875 L 23.40625 4.71875 L 23.734375 -0.5625 L 18.859375 -7.234375 L 13.71875 -8.53125 L 3.53125 -1.078125 L 3.203125 4.390625 L 7.90625 10.828125 C 8.78125 11.054688 9.664062 11.28125 10.5625 11.5 C 11.457031 11.71875 12.34375 11.941406 13.21875 12.171875 Z M 18.4375 0.328125 L 18.390625 1.28125 L 11.40625 6.390625 L 10.4375 6.140625 L 8.453125 3.421875 L 8.5 2.421875 L 15.484375 -2.6875 L 16.421875 -2.4375 Z M 18.4375 0.328125 "/></g></g></g><g fill="#c1944c" fill-opacity="1"><g transform="translate(125.223271, 287.829678)"><g><path d="M 18.5 -4.671875 L 21.171875 -8 L 13.171875 -14.4375 L 10.5 -11.109375 L 11.8125 -9.359375 L 5.609375 -1.640625 L 3.609375 -2.53125 L 0.953125 0.765625 L 14.359375 11.546875 L 19.015625 5.75 L 15.796875 3.15625 L 13.703125 4.875 L 10.09375 1.96875 L 16.296875 -5.75 Z M 18.5 -4.671875 "/></g></g></g><g fill="#c1944c" fill-opacity="1"><g transform="translate(143.735021, 301.967549)"><g><path d="M 16.65625 -9.3125 L 18.375 -13.21875 L 8.96875 -17.359375 L 7.25 -13.453125 L 8.984375 -12.09375 L 5 -3.046875 L 2.8125 -3.390625 L 1.109375 0.484375 L 16.859375 7.421875 L 19.859375 0.609375 L 16.078125 -1.046875 L 14.5 1.140625 L 10.28125 -0.71875 L 14.265625 -9.765625 Z M 16.65625 -9.3125 "/></g></g></g><g fill="#c1944c" fill-opacity="1"><g transform="translate(165.304707, 310.867928)"><g><path d="M 20.078125 -9.78125 L 21.09375 -16.5625 L 4.078125 -19.109375 L 3.453125 -14.890625 L 5.46875 -14.046875 L 4.015625 -4.265625 L 1.828125 -4.015625 L 1.203125 0.171875 L 18.234375 2.71875 L 19.234375 -4.03125 L 15.15625 -4.640625 L 14.3125 -2.71875 L 9.6875 -3.40625 L 10.1875 -6.75 L 14.8125 -6.0625 L 15.3125 -9.375 L 10.6875 -10.0625 L 11.140625 -13.1875 L 15.765625 -12.5 L 16.015625 -10.390625 Z M 20.078125 -9.78125 "/></g></g></g><g fill="#c1944c" fill-opacity="1"><g transform="translate(189.244066, 313.818004)"><g><path d="M 17.171875 -17.5 L 16.640625 -21.734375 L 8.984375 -20.765625 L 9.515625 -16.53125 L 10.75 -16.15625 L 9 -12.625 L 6.46875 -15.609375 L 7.53125 -16.28125 L 7 -20.515625 L -1.921875 -19.40625 L -1.390625 -15.171875 L 0.359375 -14.84375 L 5.890625 -9.125 L 6.328125 -5.625 L 4 -4.765625 L 4.53125 -0.5625 L 14.984375 -1.875 L 14.453125 -6.078125 L 12.046875 -6.34375 L 11.609375 -9.875 L 15.46875 -16.734375 Z M 17.171875 -17.5 "/></g></g></g><g fill="#c1944c" fill-opacity="1"><g transform="translate(213.243026, 310.247814)"><g><path d="M 13.21875 -18.28125 L 11.375 -22.59375 L 6.640625 -24.03125 L -6.53125 -18.421875 L -4.84375 -14.5 L -2.6875 -14.828125 L 1.203125 -5.71875 L -0.53125 -4.375 L 1.125 -0.484375 L 14.25 -6.078125 L 16.609375 -10.640625 L 14.546875 -15.46875 L 12.109375 -16.1875 Z M 5.109375 -11.234375 L 8.71875 -12.765625 L 9.5625 -12.515625 L 10.5 -10.3125 L 10.0625 -9.5 L 6.5 -7.984375 Z M 2.609375 -17.09375 L 6.171875 -18.609375 L 7.015625 -18.359375 L 7.75 -16.65625 L 7.328125 -15.890625 L 3.765625 -14.375 Z M 2.609375 -17.09375 "/></g></g></g><g fill="#c1944c" fill-opacity="1"><g transform="translate(236.317705, 299.73939)"><g><path d="M 11.3125 -15.625 L -0.984375 -24.546875 L -9.640625 -17.34375 L -6.90625 -14.0625 L -5.171875 -14.796875 L -1.03125 -5.375 L -2.3125 -3.5625 L 0.390625 -0.3125 L 6.8125 -5.65625 L 4.109375 -8.90625 L 2.703125 -8.484375 L 1.96875 -10.109375 L 5.203125 -12.796875 L 6.6875 -11.78125 L 5.90625 -10.40625 L 8.609375 -7.15625 L 16.21875 -13.484375 L 13.515625 -16.734375 Z M -1.40625 -17.34375 L 2.359375 -14.765625 L 0.453125 -13.1875 Z M -1.40625 -17.34375 "/></g></g></g><g fill="#c1944c" fill-opacity="1"><g transform="translate(255.859779, 282.438792)"><g><path d="M -6.109375 -18.0625 L -9.640625 -20.46875 L -15.421875 -11.984375 L -11.890625 -9.578125 L -10.25 -11.046875 L -2.078125 -5.46875 L -2.8125 -3.390625 L 0.6875 -1 L 10.375 -15.21875 L 4.234375 -19.40625 L 1.921875 -16 L 3.765625 -14.046875 L 1.15625 -10.234375 L -7.015625 -15.8125 Z M -6.109375 -18.0625 "/></g></g></g><g fill="#c1944c" fill-opacity="1"><g transform="translate(268.501675, 262.874895)"><g><path d="M -10.59375 -15.875 L -14.625 -17.28125 L -18 -7.59375 L -13.96875 -6.1875 L -12.75 -8 L -3.421875 -4.734375 L -3.59375 -2.546875 L 0.40625 -1.15625 L 6.078125 -17.390625 L -0.9375 -19.84375 L -2.296875 -15.953125 L 0 -14.546875 L -1.53125 -10.171875 L -10.859375 -13.4375 Z M -10.59375 -15.875 "/></g></g></g><g fill="#c1944c" fill-opacity="1"><g transform="translate(140.732625, 133.808523)"><g><path d="M 26.265625 -24.90625 L 20.484375 -29.75 L 7.484375 -29.75 L 1.703125 -24.90625 L 1.703125 -16.78125 L 6.75 -12.625 L 16.953125 -10.921875 L 17.765625 -10.203125 L 17.765625 -8.203125 L 16.703125 -7.3125 L 10.5 -7.3125 L 9.640625 -10.40625 L 1.703125 -10.40625 L 1.703125 -5.015625 L 7.734375 0 L 20.53125 0 L 26.609375 -5.015625 L 26.609375 -13.515625 L 21.625 -17.375 L 11.390625 -19.078125 L 10.453125 -19.8125 L 10.453125 -21.546875 L 11.5625 -22.390625 L 17.46875 -22.390625 L 18.3125 -19.296875 L 26.265625 -19.296875 Z M 26.265625 -24.90625 "/></g></g></g><g fill="#c1944c" fill-opacity="1"><g transform="translate(172.993629, 133.808523)"><g><path d="M 26.515625 -24.90625 L 20.734375 -29.75 L 8.453125 -29.75 L 1.875 -24.265625 L 1.875 -5.6875 L 8.71875 0 L 20.484375 0 C 21.472656 -0.820312 22.476562 -1.648438 23.5 -2.484375 C 24.519531 -3.316406 25.523438 -4.160156 26.515625 -5.015625 L 26.515625 -10.40625 L 18.578125 -10.40625 L 17.71875 -7.3125 L 11.90625 -7.3125 L 10.625 -8.328125 L 10.625 -21.421875 L 11.859375 -22.390625 L 17.71875 -22.390625 L 18.578125 -19.296875 L 26.515625 -19.296875 Z M 26.515625 -24.90625 "/></g></g></g><g fill="#c1944c" fill-opacity="1"><g transform="translate(205.382133, 133.808523)"><g><path d="M 17.515625 -23.25 L 17.515625 -29.75 L 1.875 -29.75 L 1.875 -23.25 L 5.09375 -22.390625 L 5.09375 -7.3125 L 1.875 -6.453125 L 1.875 0 L 28.09375 0 L 28.09375 -11.34375 L 21.796875 -11.34375 L 20.953125 -7.3125 L 13.890625 -7.3125 L 13.890625 -22.390625 Z M 17.515625 -23.25 "/></g></g></g></svg>